<?xml version="1.0" encoding="utf-8"?>
<!-- Generator: Adobe Illustrator 25.0.1, SVG Export Plug-In . SVG Version: 6.00 Build 0)  -->
<svg version="1.1" id="Capa_1" xmlns="http://www.w3.org/2000/svg" xmlns:xlink="http://www.w3.org/1999/xlink" x="0px" y="0px"
	 viewBox="0 0 512 512" style="enable-background:new 0 0 512 512;" xml:space="preserve">
<style type="text/css">
	.st0{fill:#FFFFFF;}
</style>
<g>
	<path class="st0" d="M393.4,186h-15.9v63.9h5.3c17.7,0,32,14.3,32,32v71c0,17.7-14.3,32-32,32h-5.3v63.9h15.9
		c47.1,0,85.2-38.2,85.2-85.2v-92.3C478.7,224.2,440.5,186,393.4,186z"/>
	<path class="st0" d="M312.5,21.7c-12-0.7-23.3,2.2-32.9,7.8c-8.6,5-19.7,3-26.2-4.7C240.8,9.6,221.7,0,200.4,0
		c-21.3,0-40.4,9.6-53.1,24.8c-6.4,7.7-17.5,9.7-26.2,4.7c-9.6-5.6-20.8-8.5-32.9-7.8c-29.7,1.8-53.5,26-54.9,55.6
		c-0.8,18,6.5,34.2,18.5,45.5h65.3v84.4c0,17.7,14.3,32,32,32s32-14.3,32-32v-84.4h167.7c12-11.3,19.3-27.5,18.5-45.5
		C366,47.7,342.2,23.4,312.5,21.7L312.5,21.7z"/>
	<path class="st0" d="M211.1,207.3c0,34.2-27.8,62-62,62s-62-27.8-62-62v-54.4H53.3V480c0,17.7,14.3,32,32,32h230.3
		c17.7,0,32-14.3,32-32V152.8H211.1L211.1,207.3z"/>
</g>
</svg>
