<?xml version="1.0" encoding="utf-8"?>
<!-- Generator: Adobe Illustrator 25.0.1, SVG Export Plug-In . SVG Version: 6.00 Build 0)  -->
<svg version="1.1" id="Capa_1" xmlns="http://www.w3.org/2000/svg" xmlns:xlink="http://www.w3.org/1999/xlink" x="0px" y="0px"
	 viewBox="0 0 372.6 372.6" style="enable-background:new 0 0 372.6 372.6;" xml:space="preserve">
<style type="text/css">
	.st0{fill:#FFFFFF;}
</style>
<g>
	<g>
		<path class="st0" d="M120.2,102.4c-5,25-7.6,50.4-7.9,75.9h66.1v-72C158.9,106.1,139.5,104.8,120.2,102.4z"/>
	</g>
</g>
<g>
	<g>
		<path class="st0" d="M48.6,86.9c-5.3-1.8-10.7-3.6-16-5.6C13,110,1.9,143.6,0.6,178.3h95.6c0.3-26.3,3-52.5,8-78.3
			C85.3,97,66.8,92.6,48.6,86.9z"/>
	</g>
</g>
<g>
	<g>
		<path class="st0" d="M43.2,68.2c5.3,1.9,10.9,3.8,16.6,5.4c15.8,4.5,31.8,8.1,48,10.6c4.9-20.2,12.5-39.7,22.5-57.9
			c4.1-7.5,9-14.5,14.5-21C104.9,14.6,69.2,36.7,43.2,68.2z"/>
	</g>
</g>
<g>
	<g>
		<path class="st0" d="M276.5,194.3c-0.3,26.3-3,52.5-8,78.3c18.8,3,37.4,7.4,55.5,13.1c5.3,1.8,10.7,3.6,16,5.6
			c19.6-28.7,30.7-62.3,32.1-97H276.5z"/>
	</g>
</g>
<g>
	<g>
		<path class="st0" d="M112.2,194.3c0.3,25.5,3,51,7.9,76c19.3-2.4,38.7-3.7,58.2-4v-72H112.2z"/>
	</g>
</g>
<g>
	<g>
		<path class="st0" d="M96.3,194.3h-96c1.5,34.8,12.7,68.4,32.4,97c5.3-2,10.7-3.8,16-5.6c18.2-5.8,36.8-10.2,55.6-13.1
			C99.3,246.8,96.6,220.6,96.3,194.3z"/>
	</g>
</g>
<g>
	<g>
		<path class="st0" d="M130.3,346.3c-10-18.2-17.5-37.7-22.5-57.9c-16.2,2.6-32.2,6.2-48,10.8c-5.8,1.7-11.3,3.5-16.6,5.4
			c26,31.5,61.7,53.6,101.6,62.9C139.3,361,134.4,353.9,130.3,346.3z"/>
	</g>
</g>
<g>
	<g>
		<path class="st0" d="M124.1,286c5.3,24,15.1,46.8,29.1,67c6,8.5,14.3,15.1,24,19l1.4,0.6v-90.3C160.4,282.6,142.2,283.8,124.1,286
			z"/>
	</g>
</g>
<g>
	<g>
		<path class="st0" d="M312.8,299c-15.8-4.5-31.8-8.1-48-10.6c-4.9,20.2-12.5,39.7-22.5,57.9c-4.1,7.5-9,14.5-14.5,21
			c39.9-9.2,75.6-31.3,101.6-62.9C324.2,302.5,318.6,300.6,312.8,299z"/>
	</g>
</g>
<g>
	<g>
		<path class="st0" d="M194.3,282.3v90.3l1.4-0.6c9.7-3.9,18-10.5,24-19c14.1-20.2,24.1-42.9,29.4-67
			C231,283.8,212.7,282.6,194.3,282.3z"/>
	</g>
</g>
<g>
	<g>
		<path class="st0" d="M194.3,194.3v72c19.4,0.2,38.9,1.5,58.2,3.9c5-25,7.6-50.4,7.9-75.9L194.3,194.3L194.3,194.3z"/>
	</g>
</g>
<g>
	<g>
		<path class="st0" d="M252.5,102.3c-19.3,2.4-38.7,3.7-58.2,4v72h66.1C260.1,152.8,257.4,127.4,252.5,102.3z"/>
	</g>
</g>
<g>
	<g>
		<path class="st0" d="M219.4,19.6c-6-8.5-14.3-15.1-24-19L194.3,0v90.3c18.2-0.2,36.5-1.5,54.6-3.7
			C243.5,62.6,233.5,39.8,219.4,19.6z"/>
	</g>
</g>
<g>
	<g>
		<path class="st0" d="M227.8,5.1c5.5,6.6,10.4,13.7,14.5,21.2c10,18.2,17.5,37.7,22.5,57.9c16.2-2.6,32.2-6.2,48-10.8
			c5.8-1.7,11.3-3.5,16.6-5.4C303.4,36.5,267.7,14.4,227.8,5.1z"/>
	</g>
</g>
<g>
	<g>
		<path class="st0" d="M339.9,81.3c-5.3,2-10.7,3.8-16,5.6c-18.2,5.8-36.8,10.2-55.6,13.1c5,25.8,7.7,52,8,78.3h96
			C370.9,143.6,359.6,109.9,339.9,81.3z"/>
	</g>
</g>
<g>
	<g>
		<path class="st0" d="M176.9,0.6c-9.5,4-17.8,10.6-23.7,19c-14.1,20.2-24.1,42.9-29.4,67c18.1,2.2,36.3,3.5,54.6,3.8V0L176.9,0.6z"
			/>
	</g>
</g>
</svg>
