<?xml version="1.0" encoding="utf-8"?>
<!-- Generator: Adobe Illustrator 25.2.1, SVG Export Plug-In . SVG Version: 6.00 Build 0)  -->
<svg version="1.1" id="Layer_1" xmlns="http://www.w3.org/2000/svg" xmlns:xlink="http://www.w3.org/1999/xlink" x="0px" y="0px"
	 viewBox="0 0 512 512" style="enable-background:new 0 0 512 512;" xml:space="preserve">
<style type="text/css">
	.st0{fill:#FFFFFF;}
</style>
<g id="_x30_17---Golf-Green" transform="translate(-1 -1)">
	<path id="Shape" class="st0" d="M358.2,171.6c1.9-1.7,3-4.1,3-6.6V39.2c0-3.2-1.8-6.1-4.6-7.6c-2.8-1.5-6.2-1.3-8.9,0.4
		C284.1,71.6,220.5-22.4,156.8,6.6c3.1,4.3,4.7,9.5,4.8,14.8v130.8C227.1,128.4,292.7,228.6,358.2,171.6z"/>
	<path id="Shape_1_" class="st0" d="M471.5,419.4c-21.9-9.5-83.2-26-78.7-55.6c3.2-21.1,43.4-14.1,44.1-34.7
		c0.4-14-19.4-16.7-31.2-17.4c-79.2-8.8-166-11.2-244.1,5V380c32.5,17.4,16.7,54.9-26,54.9s-58.4-38-26-54.9v-49.2
		c-39,13-102.1,39.9-104.1,81.1c-2.3,47.8,66.1,67.5,107.4,75.8l2.8,0.6c64.5,13.9,130.7,19,196.6,15.2c51.6-3,102.8-10.3,153.2-22
		c19.6-5.6,53.5-16,37-40.4C494.1,431.1,483.5,423.7,471.5,419.4L471.5,419.4z M352.5,460.9c-19.2,0-34.7-15.5-34.7-34.7
		s15.5-34.7,34.7-34.7c19.2,0,34.7,15.5,34.7,34.7S371.6,460.9,352.5,460.9z"/>
	<path id="Shape_2_" class="st0" d="M126.8,21.5v378.7c0,4.8,3.9,8.7,8.7,8.7c4.8,0,8.7-3.9,8.7-8.7c0-406.9,1.1-380.7-2.1-384.3
		c-2.4-2.8-6.2-3.8-9.6-2.5C129.1,14.6,126.8,17.8,126.8,21.5z"/>
</g>
</svg>
