<?xml version="1.0" encoding="utf-8"?>
<!-- Generator: Adobe Illustrator 25.0.1, SVG Export Plug-In . SVG Version: 6.00 Build 0)  -->
<svg version="1.1" id="Capa_1" xmlns="http://www.w3.org/2000/svg" xmlns:xlink="http://www.w3.org/1999/xlink" x="0px" y="0px"
	 viewBox="0 0 442.2 442.2" style="enable-background:new 0 0 442.2 442.2;" xml:space="preserve">
<style type="text/css">
	.st0{fill:#B1B1B4;}
</style>
<path class="st0" d="M369.9,148.7c0,51.8-27.1,100-71.2,126.9l-4.8,35.1c-2.3,16.6-16,29.1-32,29.1h-81.5c-16,0-29.7-12.5-32-29.1
	l-4.8-35.1c-44-26.9-71.2-75.1-71.2-126.9C72.4,66.7,139.1,0,221.1,0S369.8,66.7,369.9,148.7z"/>
<path class="st0" d="M273.5,351.2H168.7c-5.5,0-10,4.5-10,10s4.5,10,10,10h104.7c5.5,0,10-4.5,10-10S279,351.2,273.5,351.2z"/>
<path class="st0" d="M270.8,392.5c0,27.4-22.3,49.7-49.7,49.7c-27.4,0-49.7-22.3-49.7-49.7c0-5.5,4.5-10,10-10h79.4
	C266.3,382.5,270.8,387,270.8,392.5z"/>
</svg>
