<?xml version="1.0" encoding="utf-8"?>
<!-- Generator: Adobe Illustrator 25.0.1, SVG Export Plug-In . SVG Version: 6.00 Build 0)  -->
<svg version="1.1" id="Layer_1" xmlns="http://www.w3.org/2000/svg" xmlns:xlink="http://www.w3.org/1999/xlink" x="0px" y="0px"
	 viewBox="0 0 493.8 493.8" style="enable-background:new 0 0 493.8 493.8;" xml:space="preserve">
<style type="text/css">
	.st0{fill:#FFFFFF;}
</style>
<g>
	<g>
		<path class="st0" d="M355.9,201L81.4,12.1C70.1,4.4,58.4,0.2,48.4,0.2c-22.1,0-36.7,18.5-36.7,48.3v397c0,14.5,4.2,26.7,10.5,35.1
			c6.4,8.6,16.3,13.1,27.1,13.1c10,0,21.3-4.1,32.6-11.9l274.3-188.8c17.6-12.2,27.3-28.5,27.3-46.1
			C383.4,229.5,373.6,213.1,355.9,201z"/>
	</g>
</g>
<g>
	<g>
		<g>
			<path class="st0" d="M456.4,493.7l-0.3,0c0,0-0.1,0-0.1,0H456.4z"/>
			<path class="st0" d="M455.6,0l-11.3,0c-14.9,0-27.7,12.1-27.7,27v439.4c0,14.9,12.7,27.1,27.5,27.1l12.1,0.2
				c14.8-0.1,26-12.4,26-27.3V27C482.1,12.1,470.5,0,455.6,0z"/>
		</g>
	</g>
</g>
</svg>
