<?xml version="1.0" encoding="utf-8"?>
<!-- Generator: Adobe Illustrator 25.0.1, SVG Export Plug-In . SVG Version: 6.00 Build 0)  -->
<svg version="1.1" id="Icons" xmlns="http://www.w3.org/2000/svg" xmlns:xlink="http://www.w3.org/1999/xlink" x="0px" y="0px"
	 viewBox="0 0 512 512" style="enable-background:new 0 0 512 512;" xml:space="preserve">
<style type="text/css">
	.st0{fill:#FFFFFF;}
</style>
<path class="st0" d="M429.9,458.8H82.1c-16,0-29-13-29-29V82.1c0-16,13-29,29-29h347.7c16,0,29,13,29,29v347.7
	C458.8,445.8,445.8,458.8,429.9,458.8z M82.1,67.6c-8,0-14.4,6.5-14.4,14.4v347.7c0,8,6.5,14.4,14.4,14.4h347.7
	c8,0,14.4-6.5,14.4-14.4V82.1c0-8-6.5-14.4-14.4-14.4H82.1z"/>
<path class="st0" d="M408.1,253.1c-4,0-7.2-3.2-7.2-7.2v-21c0-4,3.2-7.2,7.2-7.2c4,0,7.2,3.2,7.2,7.2v21
	C415.4,249.8,412.1,253.1,408.1,253.1z"/>
<path class="st0" d="M393.7,415.4H118.3c-12,0-21.8-9.7-21.8-21.8V118.3c0-12,9.7-21.8,21.8-21.8h275.3c12,0,21.8,9.7,21.8,21.8V174
	c0,4-3.2,7.2-7.2,7.2c-4,0-7.2-3.2-7.2-7.2v-55.7c0-4-3.2-7.2-7.2-7.2H118.3c-4,0-7.2,3.2-7.2,7.2v275.3c0,4,3.2,7.2,7.2,7.2h275.3
	c4,0,7.2-3.2,7.2-7.2v-24.8c0-4,3.2-7.2,7.2-7.2c4,0,7.2,3.2,7.2,7.2v24.8C415.4,405.6,405.6,415.4,393.7,415.4z"/>
<path class="st0" d="M408.1,325.3c-4,0-7.2-3.2-7.2-7.2v-21.5c0-4,3.2-7.2,7.2-7.2c4,0,7.2,3.2,7.2,7.2v21.5
	C415.4,322.1,412.1,325.3,408.1,325.3z"/>
<path class="st0" d="M400.9,509.6c-4,0-7.2-3.2-7.2-7.2v-50.7c0-4,3.2-7.2,7.2-7.2c4,0,7.2,3.2,7.2,7.2v50.7
	C408.1,506.4,404.9,509.6,400.9,509.6z"/>
<path class="st0" d="M342.9,509.6c-4,0-7.2-3.2-7.2-7.2v-50.7c0-4,3.2-7.2,7.2-7.2c4,0,7.2,3.2,7.2,7.2v50.7
	C350.1,506.4,346.9,509.6,342.9,509.6z"/>
<path class="st0" d="M285,509.6c-4,0-7.2-3.2-7.2-7.2v-50.7c0-4,3.2-7.2,7.2-7.2s7.2,3.2,7.2,7.2v50.7
	C292.2,506.4,289,509.6,285,509.6z"/>
<path class="st0" d="M227,509.6c-4,0-7.2-3.2-7.2-7.2v-50.7c0-4,3.2-7.2,7.2-7.2c4,0,7.2,3.2,7.2,7.2v50.7
	C234.2,506.4,231,509.6,227,509.6z"/>
<path class="st0" d="M169.1,509.6c-4,0-7.2-3.2-7.2-7.2v-50.7c0-4,3.2-7.2,7.2-7.2c4,0,7.2,3.2,7.2,7.2v50.7
	C176.3,506.4,173.1,509.6,169.1,509.6z"/>
<path class="st0" d="M111.1,509.6c-4,0-7.2-3.2-7.2-7.2v-50.7c0-4,3.2-7.2,7.2-7.2s7.2,3.2,7.2,7.2v50.7
	C118.3,506.4,115.1,509.6,111.1,509.6z"/>
<path class="st0" d="M400.9,67.6c-4,0-7.2-3.2-7.2-7.2V9.7c0-4,3.2-7.2,7.2-7.2c4,0,7.2,3.2,7.2,7.2v50.7
	C408.1,64.4,404.9,67.6,400.9,67.6z"/>
<path class="st0" d="M342.9,67.6c-4,0-7.2-3.2-7.2-7.2V9.7c0-4,3.2-7.2,7.2-7.2c4,0,7.2,3.2,7.2,7.2v50.7
	C350.1,64.4,346.9,67.6,342.9,67.6z"/>
<path class="st0" d="M285,67.6c-4,0-7.2-3.2-7.2-7.2V9.7c0-4,3.2-7.2,7.2-7.2s7.2,3.2,7.2,7.2v50.7C292.2,64.4,289,67.6,285,67.6z"
	/>
<path class="st0" d="M227,67.6c-4,0-7.2-3.2-7.2-7.2V9.7c0-4,3.2-7.2,7.2-7.2c4,0,7.2,3.2,7.2,7.2v50.7
	C234.2,64.4,231,67.6,227,67.6z"/>
<path class="st0" d="M169.1,67.6c-4,0-7.2-3.2-7.2-7.2V9.7c0-4,3.2-7.2,7.2-7.2c4,0,7.2,3.2,7.2,7.2v50.7
	C176.3,64.4,173.1,67.6,169.1,67.6z"/>
<path class="st0" d="M111.1,67.6c-4,0-7.2-3.2-7.2-7.2V9.7c0-4,3.2-7.2,7.2-7.2s7.2,3.2,7.2,7.2v50.7
	C118.3,64.4,115.1,67.6,111.1,67.6z"/>
<path class="st0" d="M502.3,408.1h-50.7c-4,0-7.2-3.2-7.2-7.2s3.2-7.2,7.2-7.2h50.7c4,0,7.2,3.2,7.2,7.2S506.4,408.1,502.3,408.1z"
	/>
<path class="st0" d="M502.3,350.1h-50.7c-4,0-7.2-3.2-7.2-7.2c0-4,3.2-7.2,7.2-7.2h50.7c4,0,7.2,3.2,7.2,7.2
	C509.6,346.9,506.4,350.1,502.3,350.1z"/>
<path class="st0" d="M502.3,292.2h-50.7c-4,0-7.2-3.2-7.2-7.2c0-4,3.2-7.2,7.2-7.2h50.7c4,0,7.2,3.2,7.2,7.2
	C509.6,289,506.4,292.2,502.3,292.2z"/>
<path class="st0" d="M502.3,234.2h-50.7c-4,0-7.2-3.2-7.2-7.2s3.2-7.2,7.2-7.2h50.7c4,0,7.2,3.2,7.2,7.2S506.4,234.2,502.3,234.2z"
	/>
<path class="st0" d="M502.3,176.3h-50.7c-4,0-7.2-3.2-7.2-7.2s3.2-7.2,7.2-7.2h50.7c4,0,7.2,3.2,7.2,7.2S506.4,176.3,502.3,176.3z"
	/>
<path class="st0" d="M502.3,118.3h-50.7c-4,0-7.2-3.2-7.2-7.2s3.2-7.2,7.2-7.2h50.7c4,0,7.2,3.2,7.2,7.2
	C509.6,115.1,506.4,118.3,502.3,118.3z"/>
<path class="st0" d="M60.4,408.1H9.7c-4,0-7.2-3.2-7.2-7.2s3.2-7.2,7.2-7.2h50.7c4,0,7.2,3.2,7.2,7.2S64.4,408.1,60.4,408.1z"/>
<path class="st0" d="M60.4,350.1H9.7c-4,0-7.2-3.2-7.2-7.2c0-4,3.2-7.2,7.2-7.2h50.7c4,0,7.2,3.2,7.2,7.2
	C67.6,346.9,64.4,350.1,60.4,350.1z"/>
<path class="st0" d="M60.4,292.2H9.7c-4,0-7.2-3.2-7.2-7.2c0-4,3.2-7.2,7.2-7.2h50.7c4,0,7.2,3.2,7.2,7.2
	C67.6,289,64.4,292.2,60.4,292.2z"/>
<path class="st0" d="M60.4,234.2H9.7c-4,0-7.2-3.2-7.2-7.2s3.2-7.2,7.2-7.2h50.7c4,0,7.2,3.2,7.2,7.2S64.4,234.2,60.4,234.2z"/>
<path class="st0" d="M60.4,176.3H9.7c-4,0-7.2-3.2-7.2-7.2s3.2-7.2,7.2-7.2h50.7c4,0,7.2,3.2,7.2,7.2S64.4,176.3,60.4,176.3z"/>
<path class="st0" d="M60.4,118.3H9.7c-4,0-7.2-3.2-7.2-7.2s3.2-7.2,7.2-7.2h50.7c4,0,7.2,3.2,7.2,7.2S64.4,118.3,60.4,118.3z"/>
</svg>
