<?xml version="1.0" encoding="utf-8"?>
<!-- Generator: Adobe Illustrator 25.0.1, SVG Export Plug-In . SVG Version: 6.00 Build 0)  -->
<svg version="1.1" id="Capa_1" xmlns="http://www.w3.org/2000/svg" xmlns:xlink="http://www.w3.org/1999/xlink" x="0px" y="0px"
	 viewBox="0 0 512 512" style="enable-background:new 0 0 512 512;" xml:space="preserve">
<style type="text/css">
	.st0{fill:#FFFFFF;}
</style>
<g>
	<g>
		<path class="st0" d="M507.3,100.7l-96-96c-4.6-4.6-11.5-6-17.4-3.5S384,9.5,384,16v48H176C78.8,64,0,142.8,0,240
			c0,8.8,7.2,16,16,16h64c8.8,0,16-7.2,16-16c0-44.2,35.8-80,80-80h208v48c0,6.5,3.9,12.3,9.9,14.8c6,2.5,12.9,1.1,17.4-3.5l96-96
			C513.6,117.1,513.6,106.9,507.3,100.7z"/>
	</g>
</g>
<g>
	<g>
		<path class="st0" d="M496,256h-64c-8.8,0-16,7.2-16,16c0,44.2-35.8,80-80,80H128v-48c0-6.5-3.9-12.3-9.9-14.8s-12.8-1.1-17.4,3.5
			l-96,96c-6.2,6.2-6.2,16.4,0,22.6l96,96c4.6,4.6,11.5,6,17.4,3.5s9.9-8.3,9.9-14.8v-48h208c97.2,0,176-78.8,176-176
			C512,263.2,504.8,256,496,256z"/>
	</g>
</g>
</svg>
