<?xml version="1.0" encoding="utf-8"?>
<!-- Generator: Adobe Illustrator 25.0.1, SVG Export Plug-In . SVG Version: 6.00 Build 0)  -->
<svg version="1.1" id="Capa_1" xmlns="http://www.w3.org/2000/svg" xmlns:xlink="http://www.w3.org/1999/xlink" x="0px" y="0px"
	 viewBox="0 0 512 512" style="enable-background:new 0 0 512 512;" xml:space="preserve">
<style type="text/css">
	.st0{fill:#FFFFFF;}
	.st1{font-family:'Lato-Black';}
	.st2{font-size:250px;}
</style>
<g>
	<g>
		<path class="st0" d="M416.1,82.6L337.4,3.9c-3.8-3.8-9.4-4.9-14.3-2.9S315,7.8,315,13.1v39.4H144.4C64.6,52.5,0,117.1,0,196.9
			c0,7.2,5.9,13.1,13.1,13.1h52.5c7.2,0,13.1-5.9,13.1-13.1c0-36.3,29.4-65.6,65.6-65.6H315v39.4c0,5.3,3.2,10.1,8.1,12.1
			c4.9,2.1,10.6,0.9,14.3-2.9l78.7-78.7C421.3,96.1,421.3,87.7,416.1,82.6z"/>
	</g>
</g>
<g>
	<g>
		<path class="st0" d="M406.9,210h-52.5c-7.2,0-13.1,5.9-13.1,13.1c0,36.3-29.4,65.6-65.6,65.6H105v-39.4c0-5.3-3.2-10.1-8.1-12.1
			c-4.9-2.1-10.5-0.9-14.3,2.9L3.9,318.9c-5.1,5.1-5.1,13.5,0,18.5l78.7,78.7c3.8,3.8,9.4,4.9,14.3,2.9c4.8-2.1,8.1-6.8,8.1-12.1
			v-39.4h170.6c79.7,0,144.4-64.6,144.4-144.4C420,215.9,414.1,210,406.9,210z"/>
	</g>
</g>
<text transform="matrix(1 0 0 1 369 502)" class="st0 st1 st2">1</text>
</svg>
