<?xml version="1.0" encoding="utf-8"?>
<!-- Generator: Adobe Illustrator 25.0.1, SVG Export Plug-In . SVG Version: 6.00 Build 0)  -->
<svg version="1.1" id="Capa_1" xmlns="http://www.w3.org/2000/svg" xmlns:xlink="http://www.w3.org/1999/xlink" x="0px" y="0px"
	 viewBox="0 0 512 512" style="enable-background:new 0 0 512 512;" xml:space="preserve">
<style type="text/css">
	.st0{fill:#FFFFFF;}
</style>
<g>
	<g>
		<path class="st0" d="M490.7,405.3h-56.8c-9.2-30.7-37.5-53.3-71.2-53.3s-61.9,22.6-71.2,53.3H21.3C9.6,405.3,0,414.9,0,426.7
			S9.6,448,21.3,448h270.1c9.2,30.7,37.5,53.3,71.2,53.3s61.9-22.6,71.2-53.3h56.8c11.8,0,21.3-9.6,21.3-21.3
			S502.5,405.3,490.7,405.3z M362.7,458.7c-17.6,0-32-14.4-32-32s14.4-32,32-32s32,14.4,32,32S380.3,458.7,362.7,458.7z"/>
	</g>
</g>
<g>
	<g>
		<path class="st0" d="M490.7,64h-56.8c-9.3-30.7-37.5-53.3-71.2-53.3S300.7,33.3,291.5,64H21.3C9.6,64,0,73.6,0,85.3
			s9.6,21.3,21.3,21.3h270.1c9.3,30.7,37.5,53.3,71.2,53.3s61.9-22.6,71.2-53.3h56.8c11.8,0,21.3-9.6,21.3-21.3S502.5,64,490.7,64z
			 M362.7,117.3c-17.6,0-32-14.4-32-32s14.4-32,32-32s32,14.4,32,32S380.3,117.3,362.7,117.3z"/>
	</g>
</g>
<g>
	<g>
		<path class="st0" d="M490.7,234.7H220.5c-9.3-30.7-37.5-53.3-71.2-53.3s-61.9,22.6-71.2,53.3H21.3C9.6,234.7,0,244.2,0,256
			s9.6,21.3,21.3,21.3h56.8c9.3,30.7,37.5,53.3,71.2,53.3s61.9-22.6,71.2-53.3h270.1c11.8,0,21.3-9.6,21.3-21.3
			C512,244.2,502.5,234.7,490.7,234.7z M149.3,288c-17.6,0-32-14.4-32-32s14.4-32,32-32s32,14.4,32,32S167,288,149.3,288z"/>
	</g>
</g>
</svg>
