<?xml version="1.0" encoding="utf-8"?>
<!-- Generator: Adobe Illustrator 25.0.1, SVG Export Plug-In . SVG Version: 6.00 Build 0)  -->
<svg version="1.1" id="bold" xmlns="http://www.w3.org/2000/svg" xmlns:xlink="http://www.w3.org/1999/xlink" x="0px" y="0px"
	 viewBox="0 0 512 512" style="enable-background:new 0 0 512 512;" xml:space="preserve">
<style type="text/css">
	.st0{fill:#FFFFFF;}
</style>
<path class="st0" d="M496,320c-8.8,0-16-7.2-16-16c0-61.8-50.2-112-112-112H213.3v69.3c0,14.1-16.9,21.2-27.1,11.6l-117.3-112
	c-3.2-3-4.9-7.2-4.9-11.6c0-4.4,1.8-8.6,4.9-11.6l117.3-112c10.2-9.7,27.1-2.5,27.1,11.6v69.3h133.3c91.2,0,165.3,74.2,165.3,165.3
	v32C512,312.8,504.8,320,496,320z"/>
<path class="st0" d="M298.7,474.7v-69.3H165.3C74.2,405.3,0,331.2,0,240v-32c0-8.8,7.2-16,16-16s16,7.2,16,16
	c0,61.8,50.2,112,112,112h154.7v-69.3c0-14,16.9-21.3,27.1-11.6l117.3,112c3.2,3,4.9,7.2,4.9,11.6c0,4.4-1.8,8.6-4.9,11.6
	l-117.3,112C315.5,495.9,298.7,488.7,298.7,474.7z"/>
</svg>
