<?xml version="1.0" encoding="utf-8"?>
<!-- Generator: Adobe Illustrator 25.0.1, SVG Export Plug-In . SVG Version: 6.00 Build 0)  -->
<svg version="1.1" id="Layer_1" xmlns="http://www.w3.org/2000/svg" xmlns:xlink="http://www.w3.org/1999/xlink" x="0px" y="0px"
	 viewBox="0 0 96 96" style="enable-background:new 0 0 96 96;" xml:space="preserve">
<style type="text/css">
	.st0{display:none;}
	.st1{fill:#FFFFFF;}
</style>
<g id="Base" class="st0">
</g>
<g id="Dibujo">
	<g>
		<path class="st1" d="M60.4,64.4l-9.2,9.2V51.9c0-1.8-1.5-3.3-3.3-3.3c-1.8,0-3.3,1.5-3.3,3.3v21.5l-9.2-9.2
			c-1.3-1.3-3.4-1.3-4.6,0c-1.3,1.3-1.3,3.4,0,4.6l14.8,14.8c0.1,0.1,0.3,0.3,0.5,0.4c0.1,0,0.2,0.1,0.2,0.1
			c0.1,0.1,0.2,0.1,0.3,0.2c0.1,0,0.2,0.1,0.3,0.1c0.1,0,0.2,0.1,0.3,0.1c0.2,0,0.4,0.1,0.6,0.1s0.4,0,0.6-0.1
			c0.1,0,0.2-0.1,0.3-0.1s0.2-0.1,0.3-0.1s0.2-0.1,0.3-0.2c0.1,0,0.2-0.1,0.2-0.1c0.2-0.1,0.3-0.2,0.5-0.4l14.8-14.8
			c1.3-1.3,1.3-3.4,0-4.6C63.7,63.1,61.7,63.1,60.4,64.4z"/>
		<path class="st1" d="M77.4,34c-0.8,0-1.8,0.1-2.7,0.3c-3.4-11.8-14.1-20-26.7-20s-23.3,8.2-26.7,19.9c-0.9-0.2-1.9-0.3-2.7-0.3
			c-9.9,0.1-18,8.1-18,18s8.1,18,18,18h3.3c1.8,0,3.3-1.5,3.3-3.3s-1.5-3.3-3.3-3.3l0,0h-3.3c-6.3,0-11.5-5.2-11.5-11.5
			s5.2-11.4,11.5-11.4c0.4,0,1.2,0.1,2,0.3v3.1c0,1.8,1.5,3.3,3.3,3.3s3.3-1.5,3.3-3.3v-5.3C28.9,28.4,37.7,21,48.1,21
			s19.2,7.4,21,17.6v5.3c0,1.8,1.5,3.3,3.3,3.3s3.3-1.5,3.3-3.3v-3.1c0.7-0.1,1.5-0.3,1.9-0.3C83.8,40.5,89,45.7,89,52
			s-5.2,11.5-11.5,11.5h-3.3l0,0c-1.8,0-3.3,1.5-3.3,3.3s1.5,3.3,3.3,3.3h3.3c9.9,0,18-8.1,18-18S87.3,34,77.4,34z"/>
	</g>
</g>
</svg>
