<?xml version="1.0" encoding="utf-8"?>
<!-- Generator: Adobe Illustrator 25.0.1, SVG Export Plug-In . SVG Version: 6.00 Build 0)  -->
<svg version="1.1" id="Layer_1" xmlns="http://www.w3.org/2000/svg" xmlns:xlink="http://www.w3.org/1999/xlink" x="0px" y="0px"
	 viewBox="0 0 96 96" style="enable-background:new 0 0 96 96;" xml:space="preserve">
<style type="text/css">
	.st0{display:none;}
	.st1{fill:#FFFFFF;}
</style>
<g id="Base" class="st0">
</g>
<g id="Dibujo">
	<path class="st1" d="M48,80.6c-1.7,0-3.1,1.4-3.1,3.1v6.2c0,1.7,1.4,3.1,3.1,3.1c1.7,0,3.1-1.4,3.1-3.1v-6.2
		C51,82,49.6,80.6,48,80.6z M34,71.3c-1.7,0-3.1,1.4-3.1,3.1v6.2c0,1.7,1.4,3.1,3.1,3.1c1.7,0,3.1-1.4,3.1-3.1v-6.2
		C37.1,72.7,35.7,71.3,34,71.3z M61.9,71.3c-1.7,0-3.1,1.4-3.1,3.1v6.2c0,1.7,1.4,3.1,3.1,3.1c1.7,0,3.1-1.4,3.1-3.1v-6.2
		C65,72.7,63.6,71.3,61.9,71.3z M75.8,21.6c-0.8,0-1.7,0.2-2.6,0.3C69.9,10.8,59.8,3,48,3s-22,7.8-25.3,18.9
		c-0.9-0.2-1.9-0.3-2.6-0.3C10.6,21.6,3,29.2,3,38.7s7.6,17.1,17.1,17.1H31V62c0,1.7,1.4,3.1,3.1,3.1s3.1-1.4,3.1-3.1v-6.2h21.7V62
		c0,1.7,1.4,3.1,3.1,3.1c1.7,0,3.1-1.4,3.1-3.1v-6.2h10.9c9.5,0,17.1-7.6,17.1-17.1S85.3,21.6,75.8,21.6z M75.8,49.6H20.1
		c-6.1,0-10.9-4.8-10.9-10.9S14,27.8,20.1,27.8c0.5,0,1.1,0.2,1.9,0.3v2.8c0,1.7,1.4,3.1,3.1,3.1c1.7,0,3.1-1.4,3.1-3.1v-5
		C29.8,16.2,38.1,9.2,48,9.2s18.2,7,19.9,16.8v5c0,1.7,1.4,3.1,3.1,3.1S74,32.7,74,31v-2.8c0.8-0.2,1.4-0.3,1.9-0.3
		c6.1,0,10.9,4.8,10.9,10.9S81.9,49.6,75.8,49.6z M48,62c-1.7,0-3.1,1.4-3.1,3.1v6.2c0,1.7,1.4,3.1,3.1,3.1c1.7,0,3.1-1.4,3.1-3.1
		v-6.2C51,63.4,49.6,62,48,62z"/>
</g>
</svg>
