<?xml version="1.0" encoding="utf-8"?>
<!-- Generator: Adobe Illustrator 25.0.1, SVG Export Plug-In . SVG Version: 6.00 Build 0)  -->
<svg version="1.1" id="Layer_1" xmlns="http://www.w3.org/2000/svg" xmlns:xlink="http://www.w3.org/1999/xlink" x="0px" y="0px"
	 viewBox="0 0 96 96" style="enable-background:new 0 0 96 96;" xml:space="preserve">
<style type="text/css">
	.st0{display:none;}
	.st1{fill:#FFFFFF;}
</style>
<g id="Base" class="st0">
</g>
<g id="Dibujo">
	<g>
		<path class="st1" d="M80.8,50.3c4.7-4,7.4-9.9,7.4-16.3c0-1.7-1.4-3.1-3.1-3.1c-8.5,0-15.5-7-15.5-15.5c0-1.7-1.4-3.1-3.1-3.1
			c-11,0-20,8.2-21.6,18.8c-10.6,1.1-19.4,8.5-22.5,18.8c-0.8-0.2-1.7-0.3-2.5-0.3c-9.4,0-17,7.6-17,17c0,9.4,7.6,17.1,17.1,17.1
			h55.8c9.5,0,17.1-7.6,17.1-17.1C92.9,59,87.8,52.5,80.8,50.3z M63.7,18.8c1.4,9.3,8.9,16.6,18.2,18.2c-0.9,5-4.3,9.3-9.2,11.3
			c-3.4-9.2-11.5-15.8-21.4-17.1C52.4,24.9,57.4,19.9,63.7,18.8z M75.8,77.5H20.1c-6.1,0-10.9-4.8-10.9-10.9
			c0-6.1,4.8-10.8,10.9-10.8c0.5,0,1.1,0.2,1.9,0.3v2.8c0,1.7,1.4,3.1,3.1,3.1c1.7,0,3.1-1.4,3.1-3.1v-5c1.7-9.8,9.9-16.8,19.9-16.8
			s18.2,7,19.9,16.8v5c0,1.7,1.4,3.1,3.1,3.1c1.7,0,3.1-1.4,3.1-3.1v-2.8c0.8-0.2,1.4-0.3,1.9-0.3c6.1,0,10.9,4.8,10.9,10.9
			S81.9,77.5,75.8,77.5z"/>
	</g>
</g>
</svg>
