<?xml version="1.0" encoding="utf-8"?>
<!-- Generator: Adobe Illustrator 25.0.1, SVG Export Plug-In . SVG Version: 6.00 Build 0)  -->
<svg version="1.1" id="Layer_1" xmlns="http://www.w3.org/2000/svg" xmlns:xlink="http://www.w3.org/1999/xlink" x="0px" y="0px"
	 viewBox="0 0 96 96" style="enable-background:new 0 0 96 96;" xml:space="preserve">
<style type="text/css">
	.st0{display:none;}
	.st1{fill:#FFFFFF;}
</style>
<g id="Base" class="st0">
</g>
<g id="Dibujo">
	<g>
		<path class="st1" d="M75.3,34.5c3.9-3.3,6.2-8.2,6.2-13.5c0-1.4-1.2-2.6-2.6-2.6C71.8,18.4,66,12.6,66,5.6C66,4.2,64.8,3,63.4,3
			c-9.1,0-16.6,6.8-17.9,15.6c-8.7,0.9-16.1,7.1-18.6,15.6c-0.6-0.1-1.4-0.3-2.1-0.3c-7.8,0-14.1,6.3-14.1,14.1S17,62.1,24.9,62.1h9
			v5.1c0,1.4,1.2,2.6,2.6,2.6s2.6-1.2,2.6-2.6v-5.1h18v5.1c0,1.4,1.2,2.6,2.6,2.6s2.6-1.2,2.6-2.6v-5.1h9c7.8,0,14.1-6.3,14.1-14.1
			C85.3,41.7,81,36.3,75.3,34.5z M61.1,8.4c1.2,7.7,7.3,13.8,15,15c-0.8,4.1-3.6,7.7-7.6,9.4c-2.8-7.6-9.5-13.1-17.7-14.1
			C51.7,13.4,55.8,9.3,61.1,8.4z M71.1,57H24.9c-5,0-9-4-9-9s4-9,9-9c0.4,0,0.9,0.1,1.5,0.3v2.3c0,1.4,1.2,2.6,2.6,2.6
			c1.4,0,2.6-1.2,2.6-2.6v-4.1C33,29.4,39.8,23.6,48,23.6s15,5.8,16.5,13.9v4.1c0,1.4,1.2,2.6,2.6,2.6s2.6-1.2,2.6-2.6v-2.3
			c0.6-0.1,1.2-0.3,1.5-0.3c5,0,9,4,9,9S76.2,57,71.1,57z"/>
		<path class="st1" d="M48,67.3c-1.4,0-2.6,1.2-2.6,2.6V75c0,1.4,1.2,2.6,2.6,2.6s2.6-1.2,2.6-2.6v-5.1C50.6,68.4,49.4,67.3,48,67.3
			z"/>
		<path class="st1" d="M48,82.7c-1.4,0-2.6,1.2-2.6,2.6v5.1c0,1.4,1.2,2.6,2.6,2.6s2.6-1.2,2.6-2.6v-5.1
			C50.6,83.9,49.4,82.7,48,82.7z"/>
		<path class="st1" d="M36.4,75c-1.4,0-2.6,1.2-2.6,2.6v5.1c0,1.4,1.2,2.6,2.6,2.6s2.6-1.2,2.6-2.6v-5.1C39,76.2,37.8,75,36.4,75z"
			/>
		<path class="st1" d="M59.6,75c-1.4,0-2.6,1.2-2.6,2.6v5.1c0,1.4,1.2,2.6,2.6,2.6s2.6-1.2,2.6-2.6v-5.1C62.1,76.2,61,75,59.6,75z"
			/>
	</g>
</g>
</svg>
