<?xml version="1.0" encoding="utf-8"?>
<!-- Generator: Adobe Illustrator 25.0.1, SVG Export Plug-In . SVG Version: 6.00 Build 0)  -->
<svg version="1.1" id="Layer_1" xmlns="http://www.w3.org/2000/svg" xmlns:xlink="http://www.w3.org/1999/xlink" x="0px" y="0px"
	 viewBox="0 0 96 96" style="enable-background:new 0 0 96 96;" xml:space="preserve">
<style type="text/css">
	.st0{display:none;}
	.st1{fill:#FFFFFF;}
</style>
<g id="Base" class="st0">
</g>
<g id="Dibujo">
	<path class="st1" d="M42.6,83.5c-1.3,0-2.4,1.1-2.4,2.4v4.7c0,1.3,1.1,2.4,2.4,2.4s2.4-1.1,2.4-2.4v-4.7
		C44.9,84.6,43.9,83.5,42.6,83.5z M38.3,18.8c0.5,0.5,1.1,0.7,1.7,0.7c0.6,0,1.2-0.2,1.7-0.7c0.9-0.9,0.9-2.4,0-3.3l-3.3-3.3
		c-0.9-0.9-2.4-0.9-3.3,0c-0.9,0.9-0.9,2.4,0,3.3L38.3,18.8z M56.8,12.5c1.3,0,2.4-1.1,2.4-2.4V5.4c0-1.3-1.1-2.4-2.4-2.4
		s-2.4,1.1-2.4,2.4v4.7C54.4,11.4,55.5,12.5,56.8,12.5z M73.5,19.5c0.6,0,1.2-0.2,1.7-0.7l3.3-3.3c0.9-0.9,0.9-2.4,0-3.3
		s-2.4-0.9-3.3,0l-3.3,3.3c-0.9,0.9-0.9,2.4,0,3.3C72.3,19.2,72.9,19.5,73.5,19.5z M31.9,76.4c-1.3,0-2.4,1.1-2.4,2.4v4.7
		c0,1.3,1.1,2.4,2.4,2.4c1.3,0,2.4-1.1,2.4-2.4v-4.7C34.3,77.5,33.2,76.4,31.9,76.4z M85.2,31.4h-4.7c-1.3,0-2.4,1.1-2.4,2.4
		s1.1,2.4,2.4,2.4h4.7c1.3,0,2.4-1.1,2.4-2.4C87.6,32.5,86.5,31.4,85.2,31.4z M42.6,69.3c-1.3,0-2.4,1.1-2.4,2.4v4.7
		c0,1.3,1.1,2.4,2.4,2.4s2.4-1.1,2.4-2.4v-4.7C44.9,70.4,43.9,69.3,42.6,69.3z M71.8,41.1c1.1-2.3,1.7-4.7,1.7-7.3
		c0-9.1-7.5-16.6-16.6-16.6c-5.4,0-10.5,2.7-13.6,7.1c-0.2,0-0.4,0-0.6,0c-9.1,0-16.8,5.9-19.3,14.4c-0.7-0.1-1.4-0.2-2-0.2
		c-7.2,0-13,5.8-13,13s5.8,13,13,13h8.3v4.7c0,1.3,1.1,2.4,2.4,2.4c1.3,0,2.4-1.1,2.4-2.4v-4.7h16.6v4.7c0,1.3,1.1,2.4,2.4,2.4
		c1.3,0,2.4-1.1,2.4-2.4v-4.7h8.3c7.2,0,13-5.8,13-13C76.9,47.3,74.8,43.5,71.8,41.1z M56.8,21.9c6.5,0,11.8,5.3,11.8,11.8
		c0,1.8-0.5,3.6-1.2,5.2c-1.2-0.2-2.4-0.5-3.6-0.5c-0.6,0-1.3,0.1-2,0.2c-1.9-6.5-7-11.5-13.3-13.5C50.7,23.1,53.7,21.9,56.8,21.9z
		 M63.9,59.8H21.3c-4.6,0-8.3-3.7-8.3-8.3s3.7-8.3,8.3-8.3c0.4,0,0.8,0.1,1.4,0.2v2.1c0,1.3,1.1,2.4,2.4,2.4s2.4-1.1,2.4-2.4v-3.8
		c1.3-7.5,7.6-12.8,15.2-12.8c7.6,0,13.7,5.5,15,12.9v3.8c0,1.3,1.1,2.4,2.4,2.4s2.4-1.1,2.4-2.4v-2.1c0.6-0.1,1.1-0.2,1.4-0.2
		c4.6,0,8.3,3.7,8.3,8.3S68.5,59.8,63.9,59.8z M53.2,76.4c-1.3,0-2.4,1.1-2.4,2.4v4.7c0,1.3,1.1,2.4,2.4,2.4s2.4-1.1,2.4-2.4v-4.7
		C55.6,77.5,54.5,76.4,53.2,76.4z"/>
</g>
</svg>
