<?xml version="1.0" encoding="utf-8"?>
<!-- Generator: Adobe Illustrator 25.0.1, SVG Export Plug-In . SVG Version: 6.00 Build 0)  -->
<svg version="1.1" id="Layer_1" xmlns="http://www.w3.org/2000/svg" xmlns:xlink="http://www.w3.org/1999/xlink" x="0px" y="0px"
	 viewBox="0 0 96 96" style="enable-background:new 0 0 96 96;" xml:space="preserve">
<style type="text/css">
	.st0{display:none;}
	.st1{fill:#FFFFFF;}
</style>
<g id="Base" class="st0">
</g>
<g id="Dibujo">
	<g>
		<path class="st1" d="M75,56.3c1.2-2.6,1.9-5.4,1.9-8.3c0-10.3-8.5-18.8-18.8-18.8c-6.2,0-12,3.1-15.4,8.1c-0.3,0-0.4,0-0.7,0
			c-10.3,0-19.1,6.7-21.9,16.4c-0.8-0.1-1.6-0.3-2.3-0.3C9.6,53.5,3,60,3,68.2S9.6,83,17.8,83h48.4C74.4,83,81,76.4,81,68.2
			C80.9,63.3,78.5,59,75,56.3z M58.1,34.6c7.4,0,13.4,6,13.4,13.4c0,2-0.5,4-1.3,5.9c-1.3-0.3-2.7-0.5-4-0.5c-0.7,0-1.5,0.1-2.3,0.3
			c-2.1-7.4-7.9-13-15-15.3C51.2,36,54.6,34.6,58.1,34.6z M66.1,77.7H17.8c-5.2,0-9.4-4.2-9.4-9.4s4.2-9.4,9.4-9.4
			c0.4,0,0.9,0.1,1.6,0.3v2.4c0,1.5,1.2,2.7,2.7,2.7s2.7-1.2,2.7-2.7v-4.3c1.5-8.5,8.6-14.5,17.2-14.5s15.7,6,17.2,14.5v4.3
			c0,1.5,1.2,2.7,2.7,2.7s2.7-1.2,2.7-2.7V59c0.7-0.1,1.2-0.3,1.6-0.3c5.2,0,9.4,4.2,9.4,9.4S71.4,77.7,66.1,77.7z"/>
		<path class="st1" d="M58.1,23.8c1.5,0,2.7-1.2,2.7-2.7v-5.4c0-1.5-1.2-2.7-2.7-2.7s-2.7,1.2-2.7,2.7v5.4
			C55.4,22.6,56.6,23.8,58.1,23.8z"/>
		<path class="st1" d="M90.3,45.3h-5.4c-1.5,0-2.7,1.2-2.7,2.7s1.2,2.7,2.7,2.7h5.4c1.5,0,2.7-1.2,2.7-2.7S91.8,45.3,90.3,45.3z"/>
		<path class="st1" d="M77,31.8c0.7,0,1.3-0.3,1.9-0.8l3.8-3.8c1.1-1.1,1.1-2.7,0-3.8s-2.7-1.1-3.8,0l-3.8,3.8
			c-1.1,1.1-1.1,2.7,0,3.8C75.7,31.5,76.3,31.8,77,31.8z"/>
		<path class="st1" d="M37.1,30.9c0.5,0.5,1.2,0.8,1.9,0.8s1.3-0.3,1.9-0.8c1.1-1.1,1.1-2.7,0-3.8l-3.8-3.8c-1.1-1.1-2.7-1.1-3.8,0
			s-1.1,2.7,0,3.8L37.1,30.9z"/>
	</g>
</g>
</svg>
