<?xml version="1.0" encoding="utf-8"?>
<!-- Generator: Adobe Illustrator 25.0.1, SVG Export Plug-In . SVG Version: 6.00 Build 0)  -->
<svg version="1.1" id="Layer_1" xmlns="http://www.w3.org/2000/svg" xmlns:xlink="http://www.w3.org/1999/xlink" x="0px" y="0px"
	 viewBox="0 0 96 96" style="enable-background:new 0 0 96 96;" xml:space="preserve">
<style type="text/css">
	.st0{display:none;}
	.st1{fill:#FFFFFF;}
</style>
<g id="Base" class="st0">
</g>
<g id="Dibujo">
	<g>
		<path class="st1" d="M75.8,40.2c-0.8,0-1.7,0.2-2.6,0.3C69.9,29.4,59.8,21.6,48,21.6s-22,7.8-25.3,18.9c-0.9-0.2-1.9-0.3-2.6-0.3
			C10.6,40.2,3,47.8,3,57.3s7.6,17.1,17.1,17.1h55.8c9.5,0,17.1-7.6,17.1-17.1S85.3,40.2,75.8,40.2z M75.8,68.2H20.1
			c-6.1,0-10.9-4.8-10.9-10.9S14,46.4,20.1,46.4c0.5,0,1.1,0.2,1.9,0.3v2.8c0,1.7,1.4,3.1,3.1,3.1c1.7,0,3.1-1.4,3.1-3.1v-5
			c1.7-9.8,9.9-16.8,19.9-16.8s18.2,7,19.9,16.8v5c0,1.7,1.4,3.1,3.1,3.1c1.7,0,3.1-1.4,3.1-3.1v-2.8c0.8-0.2,1.4-0.3,1.9-0.3
			c6.1,0,10.9,4.8,10.9,10.9S81.9,68.2,75.8,68.2z"/>
	</g>
</g>
</svg>
