<?xml version="1.0" encoding="utf-8"?>
<!-- Generator: Adobe Illustrator 25.0.1, SVG Export Plug-In . SVG Version: 6.00 Build 0)  -->
<svg version="1.1" id="Layer_1" xmlns="http://www.w3.org/2000/svg" xmlns:xlink="http://www.w3.org/1999/xlink" x="0px" y="0px"
	 viewBox="0 0 96 96" style="enable-background:new 0 0 96 96;" xml:space="preserve">
<style type="text/css">
	.st0{display:none;}
	.st1{fill:#FFFFFF;}
</style>
<g id="Base" class="st0">
</g>
<g id="Dibujo">
	<path class="st1" d="M76,26.1c-0.8,0-1.7,0.2-2.6,0.3C70.1,15.3,60,7.5,48.1,7.5s-22,7.8-25.3,18.9c-0.9-0.2-1.9-0.3-2.6-0.3
		C10.6,26.1,3,33.8,3,43.2s7.6,17.1,17.1,17.1h17.5l-6.1,9.2c-0.6,0.9-0.6,2.2-0.2,3.3c0.5,1.1,1.6,1.7,2.8,1.7h3.6l-6.1,9.2
		c-0.9,1.4-0.6,3.4,0.9,4.3c0.5,0.3,1.1,0.5,1.7,0.5c0.9,0,2-0.5,2.6-1.4l9.3-14c0.6-0.9,0.6-2.2,0.2-3.3c-0.5-1.1-1.6-1.7-2.8-1.7
		h-3.6l5.1-7.8h8.1l-2.9,4.5c-0.6,0.9-0.6,2.2-0.2,3.3c0.5,1.1,1.6,1.7,2.8,1.7h3.6l-2.9,4.5c-0.9,1.4-0.6,3.4,0.9,4.3
		c0.5,0.3,1.1,0.5,1.7,0.5c0.9,0,2-0.5,2.6-1.4l6.2-9.3c0.6-0.9,0.6-2.2,0.2-3.3c-0.5-1.1-1.6-1.7-2.8-1.7h-3.6l2-3.1h15.1
		c9.5,0,17.1-7.6,17.1-17.1S85.5,26.1,76,26.1z M76,54.1H20.1c-6.1,0-10.9-4.8-10.9-10.9S14,32.4,20.1,32.4c0.5,0,1.1,0.2,1.9,0.3
		v2.8c0,1.7,1.4,3.1,3.1,3.1c1.7,0,3.1-1.4,3.1-3.1v-5c1.7-9.8,9.9-16.8,19.9-16.8s18.2,7,19.9,16.8v5c0,1.7,1.4,3.1,3.1,3.1
		c1.7,0,3.1-1.4,3.1-3.1v-2.8c0.8-0.2,1.4-0.3,1.9-0.3c6.1,0,10.9,4.8,10.9,10.9S82.1,54.1,76,54.1z"/>
</g>
</svg>
