<?xml version="1.0" encoding="utf-8"?>
<!-- Generator: Adobe Illustrator 25.0.1, SVG Export Plug-In . SVG Version: 6.00 Build 0)  -->
<svg version="1.1" id="Layer_1" xmlns="http://www.w3.org/2000/svg" xmlns:xlink="http://www.w3.org/1999/xlink" x="0px" y="0px"
	 viewBox="0 0 96 96" style="enable-background:new 0 0 96 96;" xml:space="preserve">
<style type="text/css">
	.st0{display:none;}
	.st1{fill:#FFFFFF;}
</style>
<g id="Base" class="st0">
</g>
<g id="Dibujo">
	<path class="st1" d="M73.7,43.7c-11.8,0-21.4-9.7-21.4-21.4c-0.1-2.4-2-4.3-4.3-4.3c-16.5,0-30,13.5-30,30s13.5,30,30,30
		s30-13.5,30-30C78,45.7,76.1,43.7,73.7,43.7z M48,69.4c-11.8,0-21.4-9.7-21.4-21.4c0-10.5,7.5-19.3,17.6-21
		c1.9,12.9,12.2,22.9,25.1,25.1C67.3,61.9,58.5,69.4,48,69.4z"/>
</g>
</svg>
