<?xml version="1.0" encoding="utf-8"?>
<!-- Generator: Adobe Illustrator 25.0.1, SVG Export Plug-In . SVG Version: 6.00 Build 0)  -->
<svg version="1.1" id="Layer_1" xmlns="http://www.w3.org/2000/svg" xmlns:xlink="http://www.w3.org/1999/xlink" x="0px" y="0px"
	 viewBox="0 0 96 96" style="enable-background:new 0 0 96 96;" xml:space="preserve">
<style type="text/css">
	.st0{display:none;}
	.st1{fill:#FFFFFF;}
</style>
<g id="Base" class="st0">
</g>
<g id="Dibujo">
	<g>
		<path class="st1" d="M35.3,29.7h16.9c1.5,0,2.8-1.3,2.8-2.8s-1.3-2.8-2.8-2.8H35.3c-1.5,0-2.8,1.3-2.8,2.8S33.8,29.7,35.3,29.7z"
			/>
		<path class="st1" d="M18.5,38.2h33.8c1.5,0,2.8-1.3,2.8-2.8s-1.3-2.8-2.8-2.8H18.5c-1.5,0-2.8,1.3-2.8,2.8S16.9,38.2,18.5,38.2z"
			/>
		<path class="st1" d="M10,46.6h33.8c1.5,0,2.8-1.3,2.8-2.8S45.3,41,43.8,41H10c-1.5,0-2.8,1.3-2.8,2.8S8.5,46.6,10,46.6z"/>
		<path class="st1" d="M93,52.2c0-1.5-1.3-2.8-2.8-2.8H5.8c-1.5,0-2.8,1.3-2.8,2.8S4.3,55,5.8,55h84.4C91.7,55,93,53.8,93,52.2z"/>
		<path class="st1" d="M90.2,57.8H10c-1.5,0-2.8,1.3-2.8,2.8s1.3,2.8,2.8,2.8h80.2c1.5,0,2.8-1.3,2.8-2.8
			C93,59.1,91.7,57.8,90.2,57.8z"/>
		<path class="st1" d="M35.3,66.3H18.5c-1.5,0-2.8,1.3-2.8,2.8s1.3,2.8,2.8,2.8h16.9c1.5,0,2.8-1.3,2.8-2.8S36.9,66.3,35.3,66.3z"/>
		<path class="st1" d="M62.1,38.2h11.2c1.5,0,2.8-1.3,2.8-2.8s-1.3-2.8-2.8-2.8H62.1c-1.5,0-2.8,1.3-2.8,2.8S60.5,38.2,62.1,38.2z"
			/>
		<path class="st1" d="M49.4,43.8c0,1.5,1.3,2.8,2.8,2.8h29.5c1.5,0,2.8-1.3,2.8-2.8S83.3,41,81.8,41H52.2
			C50.7,41,49.4,42.2,49.4,43.8z"/>
		<path class="st1" d="M81.8,66.3h-38c-1.5,0-2.8,1.3-2.8,2.8s1.3,2.8,2.8,2.8h38c1.5,0,2.8-1.3,2.8-2.8S83.3,66.3,81.8,66.3z"/>
	</g>
</g>
</svg>
