<?xml version="1.0" encoding="utf-8"?>
<!-- Generator: Adobe Illustrator 25.0.1, SVG Export Plug-In . SVG Version: 6.00 Build 0)  -->
<svg version="1.1" id="Layer_1" xmlns="http://www.w3.org/2000/svg" xmlns:xlink="http://www.w3.org/1999/xlink" x="0px" y="0px"
	 viewBox="0 0 96 96" style="enable-background:new 0 0 96 96;" xml:space="preserve">
<style type="text/css">
	.st0{display:none;}
	.st1{fill:#FFFFFF;}
</style>
<g id="Base" class="st0">
</g>
<g id="Dibujo">
	<g>
		<path class="st1" d="M75.9,29.4c-0.8,0-1.7,0.2-2.6,0.3C70,18.5,59.9,10.8,48,10.8s-22,7.8-25.3,18.9c-0.9-0.2-1.9-0.3-2.6-0.3
			C10.6,29.4,3,37,3,46.4s7.6,17.1,17.1,17.1c1.7,0,3.1-1.4,3.1-3.1c0-1.7-1.4-3.1-3.1-3.1c-6.1,0-10.9-4.8-10.9-10.9
			S14,35.6,20.1,35.6c0.5,0,1.1,0.2,1.9,0.3v2.8c0,1.7,1.4,3.1,3.1,3.1s3.1-1.4,3.1-3.1v-5C29.8,23.9,38.1,17,48,17
			s18.2,7,19.9,16.8v5c0,1.7,1.4,3.1,3.1,3.1s3.1-1.4,3.1-3.1V36c0.8-0.2,1.4-0.3,1.9-0.3c6.1,0,10.9,4.8,10.9,10.9
			s-4.9,10.7-11,10.7c-1.7,0-3.1,1.4-3.1,3.1c0,1.7,1.4,3.1,3.1,3.1c9.5,0,17.1-7.6,17.1-17.1S85.4,29.4,75.9,29.4z"/>
		<path class="st1" d="M44.4,64.3c-0.9-1.6-2.8-2-4.2-1.1c-1.6,0.9-2,2.8-1.1,4.2l1.6,2.6c0.6,0.9,1.6,1.6,2.6,1.6
			c0.5,0,1.1-0.2,1.6-0.5c1.6-0.9,2-2.8,1.1-4.2L44.4,64.3z"/>
		<path class="st1" d="M36.7,50.8c-0.9-1.6-2.8-2-4.2-1.1c-1.6,0.9-2,2.8-1.1,4.2l1.6,2.6c0.6,0.9,1.6,1.6,2.6,1.6
			c0.5,0,1.1-0.2,1.6-0.5c1.6-0.9,2-2.8,1.1-4.2L36.7,50.8z"/>
		<path class="st1" d="M40.2,57.8c0.5,0.3,1.1,0.5,1.6,0.5c1.1,0,2.2-0.6,2.6-1.6l1.6-2.6c0.9-1.6,0.3-3.4-1.1-4.2
			c-1.6-0.9-3.4-0.3-4.2,1.1l-1.6,2.6C38.2,55,38.7,56.8,40.2,57.8z"/>
		<path class="st1" d="M37.1,63.1c-1.6-0.9-3.4-0.3-4.2,1.1l-1.6,2.6c-0.9,1.6-0.3,3.4,1.1,4.2c0.5,0.3,1.1,0.5,1.6,0.5
			c1.1,0,2.2-0.6,2.6-1.6l1.6-2.6C39.2,65.8,38.7,64,37.1,63.1z"/>
		<path class="st1" d="M35.6,60.4c0-1.7-1.4-3.1-3.1-3.1h-3.1c-1.7,0-3.1,1.4-3.1,3.1s1.4,3.1,3.1,3.1h3.1
			C34.2,63.5,35.6,62.1,35.6,60.4z"/>
		<path class="st1" d="M51.1,60.4c0-1.7-1.4-3.1-3.1-3.1h-3.1c-1.7,0-3.1,1.4-3.1,3.1s1.4,3.1,3.1,3.1H48
			C49.7,63.5,51.1,62.1,51.1,60.4z"/>
		<path class="st1" d="M67.7,77.9c-0.9-1.6-2.8-2-4.2-1.1c-1.6,0.9-2,2.8-1.1,4.2l1.6,2.6c0.6,0.9,1.6,1.6,2.6,1.6
			c0.5,0,1.1-0.2,1.6-0.5c1.6-0.9,2-2.8,1.1-4.2L67.7,77.9z"/>
		<path class="st1" d="M59.9,64.4c-0.9-1.6-2.8-2-4.2-1.1c-1.6,0.9-2,2.8-1.1,4.2l1.6,2.6c0.6,0.9,1.6,1.6,2.6,1.6
			c0.5,0,1.1-0.2,1.6-0.5c1.6-0.9,2-2.8,1.1-4.2L59.9,64.4z"/>
		<path class="st1" d="M63.5,71.4c0.5,0.3,1.1,0.5,1.6,0.5c1.1,0,2.2-0.6,2.6-1.6l1.6-2.6c0.9-1.6,0.3-3.4-1.1-4.2
			c-1.6-0.9-3.4-0.3-4.2,1.1l-1.6,2.6C61.5,68.6,62,70.5,63.5,71.4z"/>
		<path class="st1" d="M60.4,76.7c-1.6-0.9-3.4-0.3-4.2,1.1l-1.6,2.6c-0.9,1.6-0.3,3.4,1.1,4.2c0.5,0.3,1.1,0.5,1.6,0.5
			c1.1,0,2.2-0.6,2.6-1.6l1.6-2.6C62.4,79.5,62,77.6,60.4,76.7z"/>
		<path class="st1" d="M58.9,74.1c0-1.7-1.4-3.1-3.1-3.1h-3.1c-1.7,0-3.1,1.4-3.1,3.1s1.4,3.1,3.1,3.1h3.1
			C57.5,77.2,58.9,75.8,58.9,74.1z"/>
		<path class="st1" d="M71.3,71h-3.1c-1.7,0-3.1,1.4-3.1,3.1s1.4,3.1,3.1,3.1h3.1c1.7,0,3.1-1.4,3.1-3.1S73,71,71.3,71z"/>
	</g>
</g>
</svg>
