<?xml version="1.0" encoding="utf-8"?>
<!-- Generator: Adobe Illustrator 25.0.1, SVG Export Plug-In . SVG Version: 6.00 Build 0)  -->
<svg version="1.1" id="Layer_1" xmlns="http://www.w3.org/2000/svg" xmlns:xlink="http://www.w3.org/1999/xlink" x="0px" y="0px"
	 viewBox="0 0 96 96" style="enable-background:new 0 0 96 96;" xml:space="preserve">
<style type="text/css">
	.st0{display:none;}
	.st1{fill:#FFFFFF;}
</style>
<g id="Base" class="st0">
</g>
<g id="Dibujo">
	<path class="st1" d="M67,31.8c0.7,0,1.3-0.2,1.9-0.8l3.7-3.7c1.1-1.1,1.1-2.7,0-3.7c-1.1-1-2.7-1.1-3.7,0l-3.7,3.7
		c-1.1,1.1-1.1,2.7,0,3.7C65.6,31.5,66.3,31.8,67,31.8z M23.8,48c0-1.5-1.2-2.7-2.7-2.7h-5.3c-1.5,0-2.7,1.2-2.7,2.7
		s1.2,2.7,2.7,2.7h5.4C22.6,50.7,23.8,49.5,23.8,48z M27,65.1l-3.7,3.7c-1.1,1.1-1.1,2.7,0,3.7c0.5,0.7,1.2,0.9,1.9,0.9
		s1.3-0.2,1.9-0.8l3.7-3.7c1.1-1.1,1.1-2.7,0-3.7C29.8,64,28.1,64,27,65.1z M27,30.9c0.5,0.5,1.2,0.8,1.9,0.8s1.3-0.2,1.9-0.8
		c1.1-1.1,1.1-2.7,0-3.7L27,23.4c-1.1-1.1-2.7-1.1-3.7,0c-1.1,1.1-1.1,2.7,0,3.7L27,30.9z M48,23.8c1.5,0,2.7-1.2,2.7-2.7v-5.3
		c0-1.5-1.2-2.7-2.7-2.7s-2.7,1.2-2.7,2.7v5.4C45.3,22.6,46.5,23.8,48,23.8z M80.2,45.3h-5.4c-1.5,0-2.7,1.2-2.7,2.7
		s1.2,2.7,2.7,2.7h5.4c1.5,0,2.7-1.2,2.7-2.7S81.7,45.3,80.2,45.3z M69,65.1c-1.1-1.1-2.7-1.1-3.7,0c-1.1,1.1-1.1,2.7,0,3.7l3.7,3.7
		c0.5,0.5,1.2,0.8,1.9,0.8c0.7,0,1.3-0.2,1.9-0.8c1.1-1.1,1.1-2.7,0-3.7L69,65.1z M48,72.3c-1.5,0-2.7,1.2-2.7,2.7v5.4
		c0,1.5,1.2,2.7,2.7,2.7s2.7-1.2,2.7-2.7V75C50.7,73.4,49.5,72.3,48,72.3z M48,29.2c-10.3,0-18.8,8.5-18.8,18.8S37.7,66.8,48,66.8
		S66.8,58.3,66.8,48S58.3,29.2,48,29.2z M48,61.5c-7.4,0-13.4-6.1-13.4-13.4S40.6,34.6,48,34.6S61.4,40.6,61.4,48S55.4,61.5,48,61.5
		z"/>
</g>
</svg>
